<svg xmlns="http://www.w3.org/2000/svg" viewBox="0 0 30 60" enable-background="new 0 0 30 60"><path d="M28.6 31.5c-1.2-1.2-3.1-1.2-4.2 0l-9.3 9.3-9.3-9.3c-1.2-1.2-3.1-1.2-4.2 0-1.2 1.2-1.2 3.1 0 4.2l9.3 9.3-9.3 9.3c-1.2 1.2-1.2 3.1 0 4.2.6.6 1.4.9 2.1.9s1.5-.3 2.1-.9l9.3-9.3 9.3 9.3c.6.6 1.4.9 2.1.9s1.5-.3 2.1-.9c1.2-1.2 1.2-3.1 0-4.2l-9.3-9.3 9.3-9.3c1.2-1.1 1.2-3 0-4.2zM27 22h-24c-1.7 0-3 1.3-3 3s1.3 3 3 3h24c1.7 0 3-1.3 3-3s-1.3-3-3-3zM27 11h-24c-1.7 0-3 1.3-3 3s1.3 3 3 3h24c1.7 0 3-1.3 3-3s-1.3-3-3-3zM3 6h24c1.7 0 3-1.3 3-3s-1.3-3-3-3h-24c-1.7 0-3 1.3-3 3s1.3 3 3 3z"/></svg>