<svg xmlns="http://www.w3.org/2000/svg" viewBox="0 0 132 19" enable-background="new 0 0 132 19"><path d="M6.2 18.5c-.9 0-1.6-.1-2.3-.2-.6-.2-1.2-.3-1.6-.5l-1-.5-.4-.3c-.2-.1-.3-.3-.4-.5-.1-.2-.1-.4-.1-.6 0-.2.1-.5.3-.8.3-.3.6-.5 1-.5.1 0 .3 0 .4.1.2 0 .3.1.4.3.1 0 .2.1.4.2s.4.2.7.3c.3.1.7.2 1.1.3.5.2.9.2 1.5.2.8 0 1.5-.1 2-.2s.9-.3 1.2-.5c.3-.2.5-.5.6-.8.1-.3.2-.6.2-1 0-.3-.1-.6-.2-.9-.1-.3-.4-.5-.7-.8-.3-.2-.8-.5-1.3-.7-.6-.2-1.2-.4-2.1-.6-.8-.2-1.5-.5-2.2-.8-.7-.4-1.2-.8-1.7-1.3s-.8-1-1-1.6c-.3-.7-.4-1.3-.4-1.9 0-.5.2-1.1.5-1.6s.6-1 1.1-1.4 1.1-.8 1.8-1c.7-.3 1.5-.4 2.4-.4.9 0 1.7.1 2.4.3.6.2 1.2.5 1.6.8.4.3.8.5 1 .8.2.2.3.4.3.4.2.2.3.4.3.7 0 .2 0 .4-.1.6-.1.2-.2.4-.4.5-.2.1-.5.2-.7.2-.4 0-.8-.2-1-.5l-.2-.2c-.3-.2-.5-.4-.7-.5-.3-.2-.6-.3-1-.4-.4-.2-.9-.2-1.5-.2s-1.1.1-1.5.2c-.4.1-.7.3-1 .5-.2.3-.4.5-.5.7-.1.3-.2.5-.2.7 0 .4.1.8.3 1.2.2.3.5.6.9.8l1.1.6c.4.1.7.3 1 .3.8.2 1.5.4 2.3.7.8.3 1.4.6 2 1 .6.4 1.1.9 1.4 1.6.4.6.5 1.4.5 2.3 0 .8-.1 1.5-.4 2.1-.2.6-.6 1-1 1.4s-.8.7-1.3.9c-.5.2-1 .3-1.5.4-.5.1-.9.2-1.4.2-.3-.1-.7-.1-.9-.1zM32.3 16.6c.1.3.1.6 0 1-.1.3-.4.6-.7.7-.3.1-.6.1-.9-.1-.3-.2-.5-.4-.7-.7l-1.2-3.1-.4-.9-.2-.5c-.1-.1-.1-.3-.2-.5h-6.8c-.1.4-.3.8-.5 1.2l-.5 1.3-.5 1.3c-.2.4-.3.8-.4 1.2-.1.2-.3.4-.5.6-.2.2-.5.3-.7.3-.2 0-.3 0-.4-.1-.3-.1-.5-.4-.7-.7-.1-.3-.2-.7-.1-1l2.5-6.6c.7-1.8 1.3-3.3 1.9-4.5s1-2.1 1.3-2.8c.4-.7.7-1.2 1-1.5.2-.3.5-.5.6-.6.2-.1.3-.1.5-.1.1 0 .3 0 .5.1.2 0 .4.2.6.5.2.3.5.8.9 1.4.3.6.8 1.6 1.3 2.8.5 1.2 1.1 2.7 1.9 4.5.6 1.8 1.4 4.1 2.4 6.8zm-5.3-6.6c-.5-1.4-1-2.5-1.4-3.4-.4-.9-.7-1.7-1-2.4-.3.7-.7 1.5-1.1 2.5-.4 1-.9 2.1-1.3 3.3h4.8zM42.2 18.5c-.9 0-1.6-.1-2.3-.2-.6-.2-1.2-.3-1.6-.5l-1-.5-.4-.3c-.2-.1-.3-.3-.4-.5-.1-.2-.1-.4-.1-.6 0-.2.1-.5.3-.8.3-.3.6-.5 1-.5.1 0 .3 0 .4.1.2 0 .3.1.4.3.1 0 .2.1.4.2s.4.2.7.3c.3.1.7.2 1.1.3.4.1.9.1 1.4.1.8 0 1.5-.1 2-.2s.9-.3 1.2-.5c.3-.2.5-.5.6-.8.1-.3.2-.6.2-1 0-.3-.1-.6-.2-.9-.1-.3-.4-.5-.7-.8s-.8-.5-1.3-.7c-.6-.2-1.2-.4-2.1-.6-.8-.2-1.6-.5-2.2-.8-.7-.4-1.2-.8-1.7-1.3s-.8-1-1-1.6c-.2-.6-.4-1.2-.3-1.8 0-.5.2-1.1.5-1.6s.6-1 1.1-1.4c.5-.4 1.1-.8 1.8-1 .7-.3 1.5-.4 2.4-.4s1.7.1 2.4.3c.7.2 1.2.5 1.7.8.4.3.8.5 1 .8.2.2.3.4.3.4.1.2.2.4.2.7 0 .2 0 .4-.1.6-.1.2-.2.4-.4.5-.2.1-.5.2-.7.2-.4 0-.8-.2-1-.5l-.2-.2c-.1-.1-.3-.3-.6-.4-.3-.2-.6-.3-1-.4-.5-.3-1-.3-1.5-.3-.6 0-1.1.1-1.5.2-.4.1-.7.3-1 .5-.2.2-.4.4-.5.7-.1.2-.2.5-.2.7 0 .4.1.8.3 1.2.2.3.5.6.9.8l1.1.6s.7.3 1 .3c.8.2 1.6.4 2.3.7s1.4.6 2 1 1.1.9 1.4 1.6c.4.6.5 1.4.5 2.3 0 .8-.1 1.5-.4 2.1-.2.6-.6 1-1 1.4-.4.4-.8.7-1.3.9-.5.2-1 .3-1.5.4-.5.1-.9.2-1.4.2-.4-.1-.7-.1-1-.1zM58.8 18.5c-.9 0-1.6-.1-2.3-.2-.6-.2-1.2-.3-1.6-.5l-1-.5-.4-.3c-.2-.1-.3-.3-.4-.5-.1-.2-.1-.4-.1-.6 0-.2.1-.5.3-.8.3-.3.6-.5 1-.5.1 0 .3 0 .4.1.2 0 .3.1.4.3.1 0 .2.1.4.2s.4.2.7.3c.3.1.7.2 1.1.3.4.1.9.1 1.4.1.8 0 1.5-.1 2-.2s.9-.3 1.2-.5c.3-.2.5-.5.6-.8.1-.3.2-.6.2-1 0-.3-.1-.6-.2-.9-.1-.3-.4-.5-.7-.8s-.8-.5-1.3-.7c-.6-.2-1.2-.4-2.1-.6-.8-.2-1.6-.5-2.2-.8-.7-.4-1.2-.8-1.7-1.3s-.8-1-1-1.6c-.2-.6-.4-1.2-.3-1.8 0-.5.2-1.1.5-1.6s.6-1 1.1-1.4c.5-.4 1.1-.8 1.8-1 .7-.3 1.5-.4 2.4-.4s1.7.1 2.4.3c.7.2 1.2.5 1.6.8.4.3.8.5 1 .8.2.2.3.4.3.4.1.2.2.5.2.7 0 .2 0 .4-.1.6-.1.2-.2.4-.4.5-.2.1-.5.2-.7.2-.4 0-.8-.2-1-.5l-.2-.2c-.1-.1-.3-.3-.6-.4-.3-.2-.6-.3-1-.4-.3-.3-.8-.3-1.4-.3-.6 0-1.1.1-1.5.2-.4.1-.7.3-1 .5-.2.2-.4.4-.5.7-.1.2-.2.5-.2.7 0 .4.1.8.3 1.2.2.3.5.6.9.8l1.1.6s.7.3 1 .3c.8.2 1.6.4 2.3.7s1.4.6 2 1 1.1.9 1.4 1.6c.4.6.5 1.4.5 2.3 0 .8-.1 1.5-.4 2.1-.2.6-.6 1-1 1.4-.4.4-.8.7-1.3.9-.5.2-1 .3-1.5.4-.5.1-.9.2-1.4.2-.3-.1-.7-.1-1-.1zM71.7 18.1c-.3 0-.6-.1-.9-.4s-.4-.6-.4-.9v-15.1c0-.4.1-.6.4-.9.3-.2.6-.4.9-.4.4 0 .7.1.9.4.2.2.4.5.4.9v13.8h7.8c.4 0 .7.1.9.4.2.2.4.5.4.9 0 .3-.1.6-.4.9-.2.3-.6.4-.9.4h-9.1zM94.3 15.9c.2.2.4.5.4.9 0 .3-.1.6-.4.9-.2.3-.5.4-.9.4h-6c-.4 0-.7-.1-.9-.4-.2-.3-.4-.6-.4-.9 0-.4.1-.7.4-.9.2-.2.5-.4.9-.4h1.8v-12.5h-1.8c-.4 0-.7-.1-.9-.4-.2-.2-.4-.5-.4-.9s.1-.6.4-.9c.2-.2.5-.4.9-.4h6c.3 0 .6.1.9.4.2.2.4.5.4.9s-.1.7-.4.9c-.2.3-.5.4-.8.4h-1.8v12.5h1.8c.3 0 .6.1.8.4zM112.2 18.3c-.2 0-.4-.1-.6-.2s-.3-.2-.5-.4l-9-12.2v11.5c0 .3-.1.6-.4.9-.2.3-.5.4-.9.4s-.6-.1-.9-.4c-.2-.3-.4-.6-.4-.9v-15.3c0-.3.1-.5.2-.7s.4-.4.6-.5c.3-.1.5-.1.8 0s.5.2.6.4c.7 1 1.5 2 2.3 3.1l2.3 3.1 4.5 6v-11.4c0-.4.1-.6.4-.9.2-.2.5-.4.9-.4s.7.1.9.4c.2.2.4.5.4.9v15.3c0 .3-.1.5-.3.8-.2.2-.4.4-.7.5h-.2zM131.2 15.9c.2.2.4.5.4.9 0 .3-.1.6-.4.9-.2.3-.5.4-.9.4h-9.8c-.4 0-.7-.1-.9-.4-.2-.3-.4-.6-.4-.9v-15.1c0-.4.1-.6.4-.9.2-.2.5-.4.9-.4h9.8c.4 0 .7.1.9.4.2.2.4.5.4.9s-.1.7-.4.9c-.2.3-.5.4-.9.4h-8.5v5h6.2c.4 0 .7.1.9.4.2.3.4.6.4.9 0 .4-.1.7-.4.9-.2.2-.5.4-.9.4h-6.2v5h8.5c.4-.1.7 0 .9.3z"/></svg>